HIERARCHY
ROOT Hips
{
	OFFSET 0.000000 97.167313 0.000000
	CHANNELS 6 Xposition Yposition Zposition Xrotation Yrotation Zrotation
	JOINT Spine
	{
		OFFSET 0.000000 13.784798 0.064400
		CHANNELS 3 Xrotation Yrotation Zrotation
		JOINT Spine1
		{
			OFFSET 0.000000 12.037903 0.404700
			CHANNELS 3 Xrotation Yrotation Zrotation
			JOINT Spine2
			{
				OFFSET 0.000000 17.795601 0.420200
				CHANNELS 3 Xrotation Yrotation Zrotation
				JOINT Neck
				{
					OFFSET 0.000000 39.131302 11.954600
					CHANNELS 3 Xrotation Yrotation Zrotation
					JOINT Head
					{
						OFFSET 0.000000 14.456192 15.627699
						CHANNELS 3 Xrotation Yrotation Zrotation
						JOINT HeadTop_End
						{
							OFFSET 0.000000 15.703506 7.603401
							CHANNELS 3 Xrotation Yrotation Zrotation
							End Site
							{
								OFFSET 0.000000 17.447403 0.000000
							}
						}
					}
				}
				JOINT LeftShoulder
				{
					OFFSET 17.399500 24.608795 1.168800
					CHANNELS 3 Xrotation Yrotation Zrotation
					JOINT LeftArm
					{
						OFFSET 18.980635 5.765305 1.818600
						CHANNELS 3 Xrotation Yrotation Zrotation
						JOINT LeftForeArm
						{
							OFFSET 49.290169 0.000000 0.000000
							CHANNELS 3 Xrotation Yrotation Zrotation
							JOINT LeftHand
							{
								OFFSET 31.562012 0.000000 0.000000
								CHANNELS 3 Xrotation Yrotation Zrotation
								JOINT LeftHandThumb1
								{
									OFFSET 6.133995 -4.388519 7.076070
									CHANNELS 3 Xrotation Yrotation Zrotation
									JOINT LeftHandThumb2
									{
										OFFSET 6.037666 -3.485840 3.485847
										CHANNELS 3 Xrotation Yrotation Zrotation
										JOINT LeftHandThumb3
										{
											OFFSET 6.496506 -3.750763 3.750761
											CHANNELS 3 Xrotation Yrotation Zrotation
											JOINT LeftHandThumb4
											{
												OFFSET 5.616882 -3.242905 3.242910
												CHANNELS 3 Xrotation Yrotation Zrotation
												End Site
												{
													OFFSET -1.254608 7.132141 0.375429
												}
											}
										}
									}
								}
								JOINT LeftHandPinky1
								{
									OFFSET 18.920792 -0.453171 -11.426712
									CHANNELS 3 Xrotation Yrotation Zrotation
									JOINT LeftHandPinky2
									{
										OFFSET 4.919586 0.000000 0.000000
										CHANNELS 3 Xrotation Yrotation Zrotation
										JOINT LeftHandPinky3
										{
											OFFSET 5.233047 0.000000 0.000000
											CHANNELS 3 Xrotation Yrotation Zrotation
											JOINT LeftHandPinky4
											{
												OFFSET 5.571716 0.000000 0.000000
												CHANNELS 3 Xrotation Yrotation Zrotation
												End Site
												{
													OFFSET -3.459808 4.342407 -0.466164
												}
											}
										}
									}
								}
								JOINT LeftHandRing1
								{
									OFFSET 22.726120 -0.094986 -6.500475
									CHANNELS 3 Xrotation Yrotation Zrotation
									JOINT LeftHandRing2
									{
										OFFSET 6.408615 0.000000 0.000000
										CHANNELS 3 Xrotation Yrotation Zrotation
										JOINT LeftHandRing3
										{
											OFFSET 6.150223 0.000000 0.000000
											CHANNELS 3 Xrotation Yrotation Zrotation
											JOINT LeftHandRing4
											{
												OFFSET 6.145386 0.000000 0.000000
												CHANNELS 3 Xrotation Yrotation Zrotation
												End Site
												{
													OFFSET -3.671402 4.923981 -0.202372
												}
											}
										}
									}
								}
								JOINT LeftHandMiddle1
								{
									OFFSET 23.373947 0.000000 0.000001
									CHANNELS 3 Xrotation Yrotation Zrotation
									JOINT LeftHandMiddle2
									{
										OFFSET 6.996567 0.000000 0.000000
										CHANNELS 3 Xrotation Yrotation Zrotation
										JOINT LeftHandMiddle3
										{
											OFFSET 7.015945 0.000000 0.000000
											CHANNELS 3 Xrotation Yrotation Zrotation
											JOINT LeftHandMiddle4
											{
												OFFSET 7.721573 0.000000 0.000000
												CHANNELS 3 Xrotation Yrotation Zrotation
												End Site
												{
													OFFSET -4.651108 6.158463 0.251582
												}
											}
										}
									}
								}
								JOINT LeftHandIndex1
								{
									OFFSET 21.310577 -0.490082 6.209344
									CHANNELS 3 Xrotation Yrotation Zrotation
									JOINT LeftHandIndex2
									{
										OFFSET 7.536453 0.000000 0.000000
										CHANNELS 3 Xrotation Yrotation Zrotation
										JOINT LeftHandIndex3
										{
											OFFSET 7.512344 0.000000 0.000000
											CHANNELS 3 Xrotation Yrotation Zrotation
											JOINT LeftHandIndex4
											{
												OFFSET 10.212402 0.000000 0.000001
												CHANNELS 3 Xrotation Yrotation Zrotation
												End Site
												{
													OFFSET -5.180801 8.690506 1.388433
												}
											}
										}
									}
								}
							}
						}
					}
				}
				JOINT RightShoulder
				{
					OFFSET -17.399500 24.608795 1.168800
					CHANNELS 3 Xrotation Yrotation Zrotation
					JOINT RightArm
					{
						OFFSET -18.980635 5.765305 1.818600
						CHANNELS 3 Xrotation Yrotation Zrotation
						JOINT RightForeArm
						{
							OFFSET -49.290169 0.000000 0.000000
							CHANNELS 3 Xrotation Yrotation Zrotation
							JOINT RightHand
							{
								OFFSET -31.562012 0.000000 0.000000
								CHANNELS 3 Xrotation Yrotation Zrotation
								JOINT RightHandThumb1
								{
									OFFSET -6.133995 -4.388519 7.076070
									CHANNELS 3 Xrotation Yrotation Zrotation
									JOINT RightHandThumb2
									{
										OFFSET -6.037666 -3.485840 3.485847
										CHANNELS 3 Xrotation Yrotation Zrotation
										JOINT RightHandThumb3
										{
											OFFSET -6.496506 -3.750763 3.750761
											CHANNELS 3 Xrotation Yrotation Zrotation
											JOINT RightHandThumb4
											{
												OFFSET -5.616882 -3.242905 3.242910
												CHANNELS 3 Xrotation Yrotation Zrotation
												End Site
												{
													OFFSET 1.254608 7.132141 0.375429
												}
											}
										}
									}
								}
								JOINT RightHandIndex1
								{
									OFFSET -21.310577 -0.490082 6.209344
									CHANNELS 3 Xrotation Yrotation Zrotation
									JOINT RightHandIndex2
									{
										OFFSET -7.536453 0.000000 0.000000
										CHANNELS 3 Xrotation Yrotation Zrotation
										JOINT RightHandIndex3
										{
											OFFSET -7.512344 0.000000 0.000000
											CHANNELS 3 Xrotation Yrotation Zrotation
											JOINT RightHandIndex4
											{
												OFFSET -10.212402 0.000000 0.000001
												CHANNELS 3 Xrotation Yrotation Zrotation
												End Site
												{
													OFFSET 5.180801 8.690506 1.388433
												}
											}
										}
									}
								}
								JOINT RightHandMiddle1
								{
									OFFSET -23.373947 0.000000 0.000001
									CHANNELS 3 Xrotation Yrotation Zrotation
									JOINT RightHandMiddle2
									{
										OFFSET -6.996567 0.000000 0.000000
										CHANNELS 3 Xrotation Yrotation Zrotation
										JOINT RightHandMiddle3
										{
											OFFSET -7.015945 0.000000 0.000000
											CHANNELS 3 Xrotation Yrotation Zrotation
											JOINT RightHandMiddle4
											{
												OFFSET -7.721573 0.000000 0.000000
												CHANNELS 3 Xrotation Yrotation Zrotation
												End Site
												{
													OFFSET 4.651108 6.158463 0.251582
												}
											}
										}
									}
								}
								JOINT RightHandRing1
								{
									OFFSET -22.726120 -0.094986 -6.500475
									CHANNELS 3 Xrotation Yrotation Zrotation
									JOINT RightHandRing2
									{
										OFFSET -6.408615 0.000000 0.000000
										CHANNELS 3 Xrotation Yrotation Zrotation
										JOINT RightHandRing3
										{
											OFFSET -6.150223 0.000000 0.000000
											CHANNELS 3 Xrotation Yrotation Zrotation
											JOINT RightHandRing4
											{
												OFFSET -6.145386 0.000000 0.000000
												CHANNELS 3 Xrotation Yrotation Zrotation
												End Site
												{
													OFFSET 3.671402 4.923981 -0.202372
												}
											}
										}
									}
								}
								JOINT RightHandPinky1
								{
									OFFSET -18.920792 -0.453171 -11.426712
									CHANNELS 3 Xrotation Yrotation Zrotation
									JOINT RightHandPinky2
									{
										OFFSET -4.919586 0.000000 0.000000
										CHANNELS 3 Xrotation Yrotation Zrotation
										JOINT RightHandPinky3
										{
											OFFSET -5.233047 0.000000 0.000000
											CHANNELS 3 Xrotation Yrotation Zrotation
											JOINT RightHandPinky4
											{
												OFFSET -5.571716 0.000000 0.000000
												CHANNELS 3 Xrotation Yrotation Zrotation
												End Site
												{
													OFFSET 3.459808 4.342407 -0.466164
												}
											}
										}
									}
								}
							}
						}
					}
				}
			}
		}
	}
	JOINT LeftUpLeg
	{
		OFFSET 19.899099 -7.885101 -3.429500
		CHANNELS 3 Xrotation Yrotation Zrotation
		JOINT LeftLeg
		{
			OFFSET 1.745560 -36.997807 10.304700
			CHANNELS 3 Xrotation Yrotation Zrotation
			JOINT LeftFoot
			{
				OFFSET -1.745558 -29.803308 -13.615400
				CHANNELS 3 Xrotation Yrotation Zrotation
				JOINT LeftToeBase
				{
					OFFSET 1.181900 -18.539904 15.226099
					CHANNELS 3 Xrotation Yrotation Zrotation
					JOINT LeftToe_End
					{
						OFFSET -0.863701 1.402801 16.534700
						CHANNELS 3 Xrotation Yrotation Zrotation
						End Site
						{
							OFFSET 0.000000 16.616566 0.000000
						}
					}
				}
			}
		}
	}
	JOINT RightUpLeg
	{
		OFFSET -19.899099 -7.885101 -3.429500
		CHANNELS 3 Xrotation Yrotation Zrotation
		JOINT RightLeg
		{
			OFFSET -1.745560 -36.997807 10.304700
			CHANNELS 3 Xrotation Yrotation Zrotation
			JOINT RightFoot
			{
				OFFSET 1.745558 -29.803308 -13.615400
				CHANNELS 3 Xrotation Yrotation Zrotation
				JOINT RightToeBase
				{
					OFFSET -1.181900 -18.539904 15.226099
					CHANNELS 3 Xrotation Yrotation Zrotation
					JOINT RightToe_End
					{
						OFFSET 0.863701 1.402801 16.534700
						CHANNELS 3 Xrotation Yrotation Zrotation
						End Site
						{
							OFFSET 0.000000 16.616566 0.000000
						}
					}
				}
			}
		}
	}
}
MOTION
Frames: 4
Frame Time: 0.033333
3.579489 90.812248 31.941935 0.351330 225.429547 -18.769008 23.667946 -5.763638 3.196018 5.640345 -10.258315 2.189582 5.560878 -10.124623 2.545781 -2.787677 6.099565 1.551061 2.382609 35.336861 -3.318227 0.000001 -0.000001 -0.000000 -142.688758 -83.749560 -141.055223 -23.022068 3.482831 -33.258145 0.000039 -39.806612 -0.381458 -14.847146 -5.391597 -23.503075 -7.471934 1.860676 -7.166922 30.987038 27.310518 -4.510891 83.254651 13.297938 -10.940300 0.000002 -0.000004 -0.000003 -17.098977 22.128945 -43.123181 0.019737 0.027010 -78.662906 0.004936 0.007737 -26.297190 0.000000 0.000001 0.000001 -6.443160 23.132645 -76.210158 0.012868 0.975924 -51.002983 6.771118 8.412936 -40.137012 0.000001 -0.000001 0.000002 1.623342 16.580938 -84.691279 0.017999 0.022045 -72.884853 -1.296718 -0.092180 -19.943276 0.000001 0.000001 0.000006 -4.707376 11.366679 -75.214460 -0.816390 3.073995 -46.874632 -4.740648 0.379136 -78.699468 -0.000000 0.000002 -0.000001 12.711252 19.476722 -12.034932 -39.108075 -21.976222 63.791071 0.000103 77.975571 -6.446098 -34.735586 29.744289 -0.453902 9.347183 2.810563 -11.364515 16.169103 -43.265990 15.843583 32.491773 -44.566786 5.661120 -0.000001 -0.000002 0.000002 17.076795 -0.396535 31.924345 -0.204395 -0.284211 112.811571 1.553159 -1.173024 33.344560 -0.000003 0.000000 -0.000001 9.205473 -5.035889 102.738080 0.014991 -0.019209 61.018519 1.871343 0.346192 31.443780 0.000001 0.000003 -0.000006 5.569148 -8.935245 107.329094 0.547990 -0.005771 41.263710 0.739122 0.837853 51.122245 0.000000 -0.000000 -0.000003 6.511224 -17.148232 98.228017 0.007427 -0.015761 43.845740 0.011252 -0.024774 57.754577 -0.000002 -0.000001 0.000000 -9.831410 -9.676461 0.705525 43.962540 -18.882639 11.459234 -20.685786 -5.388790 11.987358 -0.084137 -5.532225 0.712373 -0.000000 -0.000000 0.000000 -31.904941 -1.514439 -0.839224 11.766289 40.145478 -1.444993 2.738866 -8.100615 12.029096 -0.175930 0.995926 -0.993152 0.000001 -0.000001 0.000001 
4.438394 90.519028 30.807610 -3.379189 246.195562 -19.687199 23.408718 -5.522168 4.433710 5.696926 -10.436465 2.851478 5.545613 -10.349483 3.216688 -1.733908 4.494618 -0.564218 0.511708 32.090015 -3.346002 -0.000002 0.000001 -0.000000 -94.893826 -83.223704 -97.574491 -14.199034 -1.960486 -31.003410 0.000060 -51.269640 -0.282476 -18.314828 0.936011 -20.247577 -7.471931 1.860681 -7.166923 30.987035 27.310517 -4.510891 83.254651 13.297942 -10.940298 -0.000000 0.000004 -0.000003 -17.098974 22.128947 -43.123181 0.019734 0.027007 -78.662906 0.004939 0.007732 -26.297186 0.000001 -0.000006 -0.000005 -6.443159 23.132649 -76.210158 0.012867 0.975925 -51.002986 6.771120 8.412936 -40.137016 -0.000001 0.000000 0.000003 1.623341 16.580938 -84.691272 0.017998 0.022046 -72.884853 -1.296717 -0.092180 -19.943280 0.000000 -0.000002 0.000004 -4.707373 11.366680 -75.214460 -0.816390 3.073997 -46.874632 -4.740649 0.379129 -78.699468 -0.000000 0.000001 0.000001 12.448757 18.370818 -15.283076 -29.606449 -26.872382 73.117339 0.000675 88.206736 -8.733114 -31.097517 26.555559 -1.519958 9.347182 2.810566 -11.364513 16.169103 -43.265997 15.843583 32.491770 -44.566779 5.661117 0.000002 0.000002 -0.000002 17.076791 -0.396537 31.924345 -0.204396 -0.284209 112.811571 1.553158 -1.173016 33.344563 0.000000 0.000000 -0.000001 9.205472 -5.035891 102.738080 0.014990 -0.019209 61.018519 1.871345 0.346189 31.443783 0.000001 -0.000000 -0.000006 5.569150 -8.935246 107.329101 0.547991 -0.005771 41.263714 0.739122 0.837854 51.122245 -0.000002 -0.000000 -0.000005 6.511221 -17.148235 98.228024 0.007430 -0.015759 43.845740 0.011249 -0.024772 57.754584 0.000001 -0.000002 0.000002 -12.459616 -9.291665 0.868626 45.345684 -14.930464 12.525077 -19.857981 -4.033251 7.342347 -5.629210 -4.839931 6.111881 -0.000000 0.000001 -0.000000 -32.364414 -5.117386 -4.836851 21.827270 36.715040 -0.266544 -5.090648 -5.079256 0.852007 -0.283760 1.016805 -0.935533 -0.000000 -0.000000 -0.000000 
4.978325 90.572968 28.668785 -30.188121 264.572022 -43.903182 22.645405 -5.226198 5.201787 5.452993 -10.178878 2.830768 5.360236 -10.041593 3.217337 -1.417946 2.404364 -0.263841 -1.641863 26.943621 -3.157648 0.000000 0.000000 0.000000 -42.563072 -81.457662 -44.653806 -8.799604 -8.557792 -30.644733 0.000062 -58.269573 -0.229927 -23.224692 6.005836 -17.363845 -7.471935 1.860679 -7.166925 30.987035 27.310517 -4.510886 83.254651 13.297939 -10.940296 0.000000 -0.000001 -0.000001 -17.098976 22.128945 -43.123171 0.019734 0.027011 -78.662906 0.004937 0.007741 -26.297181 -0.000000 -0.000000 -0.000004 -6.443158 23.132649 -76.210165 0.012865 0.975925 -51.002983 6.771120 8.412938 -40.137016 -0.000002 0.000003 0.000005 1.623339 16.580938 -84.691279 0.018000 0.022046 -72.884846 -1.296717 -0.092178 -19.943275 0.000002 -0.000002 -0.000001 -4.707375 11.366682 -75.214460 -0.816392 3.074002 -46.874632 -4.740646 0.379128 -78.699461 -0.000000 0.000001 0.000001 13.540999 17.681200 -15.938308 -27.045324 -26.981730 79.269113 -0.000608 93.729846 -10.341998 -28.554251 22.916868 -2.528873 9.347182 2.810566 -11.364511 16.169103 -43.265994 15.843585 32.491767 -44.566786 5.661122 0.000003 -0.000003 0.000002 17.076795 -0.396531 31.924349 -0.204394 -0.284216 112.811571 1.553157 -1.173018 33.344563 -0.000002 -0.000003 -0.000001 9.205475 -5.035887 102.738080 0.014990 -0.019210 61.018513 1.871344 0.346191 31.443783 -0.000000 0.000001 -0.000008 5.569150 -8.935245 107.329094 0.547988 -0.005770 41.263710 0.739123 0.837854 51.122245 0.000000 0.000001 -0.000003 6.511221 -17.148233 98.228017 0.007427 -0.015760 43.845740 0.011252 -0.024771 57.754584 -0.000002 -0.000002 0.000002 -15.666205 -4.825703 2.530268 44.707529 -11.077053 12.016505 -15.001860 -1.171920 5.518049 -12.749953 -4.353654 -0.023987 -0.000000 -0.000005 0.000000 -30.598196 -5.068147 -10.398174 19.534969 33.016656 5.442570 -2.202489 -2.161439 -2.506877 -0.391956 1.037862 -0.877307 -0.000000 0.000001 0.000001 
5.179310 90.360260 25.888329 15.532639 283.178933 4.281007 22.003403 -4.365812 4.676504 5.241523 -9.753600 2.896352 5.127260 -9.650241 3.236608 -2.421609 1.052678 0.522809 -3.456570 24.156344 -2.465512 0.000001 0.000001 0.000000 -10.273318 -77.942492 -7.822433 -8.918723 -14.329231 -32.834567 0.000015 -58.872447 -1.145721 -28.007264 5.346775 -14.740725 -7.471929 1.860681 -7.166924 30.987042 27.310518 -4.510889 83.254644 13.297940 -10.940304 -0.000002 -0.000000 0.000002 -17.098977 22.128947 -43.123181 0.019733 0.027009 -78.662899 0.004938 0.007739 -26.297183 0.000001 0.000006 0.000002 -6.443159 23.132650 -76.210158 0.012865 0.975923 -51.002986 6.771122 8.412937 -40.137012 0.000001 0.000002 0.000005 1.623340 16.580940 -84.691279 0.018001 0.022046 -72.884853 -1.296715 -0.092176 -19.943276 0.000001 -0.000000 0.000004 -4.707372 11.366683 -75.214453 -0.816393 3.073997 -46.874632 -4.740646 0.379132 -78.699461 -0.000002 0.000003 0.000001 14.222979 16.650531 -15.172207 -28.635469 -23.555717 80.657369 -0.000496 94.673915 -10.904577 -26.800532 21.753756 -4.337053 9.347183 2.810566 -11.364512 16.169100 -43.266001 15.843578 32.491767 -44.566786 5.661118 0.000001 0.000001 -0.000001 17.076791 -0.396534 31.924345 -0.204391 -0.284210 112.811571 1.553157 -1.173025 33.344563 -0.000004 -0.000001 0.000001 9.205473 -5.035887 102.738080 0.014987 -0.019209 61.018519 1.871343 0.346189 31.443780 -0.000001 0.000000 0.000001 5.569148 -8.935245 107.329101 0.547988 -0.005770 41.263710 0.739122 0.837853 51.122238 -0.000001 -0.000001 -0.000005 6.511222 -17.148230 98.228031 0.007427 -0.015763 43.845740 0.011253 -0.024773 57.754584 -0.000000 0.000000 -0.000003 -16.039601 -3.617924 6.065307 41.552620 -9.234071 10.497715 -16.681994 0.274023 0.451499 -10.329478 -4.658851 -1.282632 -0.000000 -0.000000 -0.000000 -25.895954 -4.380935 -15.961105 13.238046 29.995524 7.057388 0.768653 -0.892885 4.717889 -0.501361 1.058939 -0.818778 0.000001 0.000003 0.000000 
